# xmcd
#
# Track frame offsets:
#	150
#	1384
#	27086
#	41346
#	62555
#	97254
#	138789
#	153601
#	191096
#	207876
#	225033
#	261813
#
# Disc length: 4242 seconds
#
# Revision: 1
# Processed by: cddbd v1.5.2PL0 Copyright (c) Steve Scherf et al.
# Submitted via: audiograbber 1.83.01
#
DISCID=9310900c
DTITLE=Willi Lohmann Kapelle - Live  -- Upstairs --
DYEAR=2007
DGENRE=Blues
TTITLE0=Upstairs
TTITLE1=Water melon man
TTITLE2=Caldonia
TTITLE3=Certainly all
TTITLE4=I smell trouble
TTITLE5=Blues with a feeling
TTITLE6=Stagger lee
TTITLE7=Green onions
TTITLE8=Mashed potatos
TTITLE9=Rightn now
TTITLE10=Kidney Stew
TTITLE11=Roadrunner
EXTD=
EXTT0=
EXTT1=
EXTT2=
EXTT3=
EXTT4=
EXTT5=
EXTT6=
EXTT7=
EXTT8=
EXTT9=
EXTT10=
EXTT11=
PLAYORDER=
